<?xml version="1.0" encoding="utf-8"?>
<!-- Generator: Adobe Illustrator 28.3.0, SVG Export Plug-In . SVG Version: 6.00 Build 0)  -->
<svg version="1.2" baseProfile="tiny" id="logo" xmlns="http://www.w3.org/2000/svg" xmlns:xlink="http://www.w3.org/1999/xlink"
	 x="0px" y="0px" viewBox="0 0 640 144" overflow="visible" xml:space="preserve">
<g>
	<path d="M88.5,0.5c-1.2,7.1-4.4,16.4-9.6,27.9L65.5,57.7c-4.5,10-6.8,18-6.8,24c0,2.8,1.5,6.2,4.6,10.1l4.2,5.3L65,97.5
		c-0.3,0.1-0.8,0.1-1.4,0.1c-3.4,0-6.2-1.6-8.6-4.7c-2.1-2.8-3.2-6-3.2-9.5c0-1.1,0.5-3.8,1.5-8.2c0.5-2,0.7-3.6,0.7-4.8
		c0-0.3-0.2-1-0.7-2.1c-0.5-1.1-0.7-1.8-0.7-2c-2-1.1-5.6-1.6-10.8-1.6h-4.4c-6.8,0-12.1,2.4-15.9,7.1c-1.8,3.3-4.4,7.7-7.6,13.2
		c-2.8,4.7-6.8,7.1-12,7.1c0.3-2.6,1.8-5.9,4.5-10c0.7-1,2.9-4.1,6.7-9.2l-6.7-2.2v-1.2c0-3.7,1.9-5.8,5.8-6.3
		c4.9-0.8,8.7-4.1,11.4-10c2.8-6.3,5.6-9.5,8.3-9.5c1.8,0,3.3,0.4,4.6,1.3C39.9,42.9,45,38,51.9,30c10-11.6,15.8-18.2,17.4-19.9
		c6.5-6.7,11.8-10,16-10L88.5,0.5z M31.6,51.5v-1.2l-1.1-1.1l-1.2,1.1v1.2l1.2,1.2L31.6,51.5z M34.3,47.4l-0.2-2.9l-1.2,1.3
		c-1.3,0-1.8,0.5-1.8,1.4c0,0.7,0.2,1.7,0.7,2.9C33.5,48.7,34.3,47.8,34.3,47.4z M78.4,9.5c-7,4.8-15.4,12.3-25.2,22.6
		c-10.2,10.4-17.3,19.1-21.4,26c2.3,0.5,4.4,1,6.3,1.5c4.9,1.3,8.5,2,10.9,2c2.4,0,4.5-0.5,6.2-1.4c1-0.5,4.3-6,9.8-16.3
		c5.2-9.9,8.3-16.1,9.5-18.7C77.2,19.3,78.4,14.1,78.4,9.5z"/>
	<path d="M148.6,52.9c0,7.8-3.4,15.4-10.1,23c-1.3,1.5-7.7,7.2-19,17c-6.8,6-10.2,10.7-10.2,14.2c0,1.6,0.4,3.8,1.2,6.8
		c0.8,3,1.2,5.3,1.2,6.8c0,7.7-2.5,13.5-7.5,17.5c-4.6,3.7-10.9,5.5-18.7,5.5c-6.1,0-9.2-2.2-9.2-6.7c0-4.5,1.7-8.6,5.1-12.5
		c1.9-2,5.3-5.5,10.1-10.7c3.9-4.2,6.2-8.3,6.8-12.3c-1.2-0.2-2.4-0.4-3.6-0.4c-1,0-2,0.1-2.8,0.4c0-2,0.3-4.1,0.9-6.2l3.3-1.9
		c1.6,0.2,2.9,0.4,3.8,0.6c1.5,0.4,2.5,1,3.1,1.9l1.8,0.4c1.8,0,3.6-0.9,5.4-2.8c0.6-0.5,1.9-2.3,3.9-5.2c-0.6-0.9-1.8-1.7-3.4-2.4
		c-2,0.5-4,0.9-6,1.4c-15.1,0-22.7-3.1-22.7-9.2c0-5.3,4.2-11.2,12.7-17.5c5.6-4.1,12.2-7.9,20-11.5c10-4.6,17.7-6.9,23.3-6.9
		C145,42.3,148.6,45.8,148.6,52.9z M103.7,117.9c0-2.7-0.3-5.1-0.8-7.4c-6,4.9-10.6,9.6-13.9,14.1c-3,4.2-5,7.8-6.1,10.8
		c2.8,1.3,5.5,2,8,2c4.5,0,7.8-2.2,10.1-6.7C102.8,127.2,103.7,122.9,103.7,117.9z M141,56.2c0-4.1-2.7-6.1-8.2-6.1
		c-5.7,0-14.1,3-25,9.1c-12,6.6-18,12.5-18,17.8c0,3.2,2.9,4.8,8.7,4.8c8.9,0,16.1-0.9,21.6-2.7c7.5-2.4,13.2-6.7,17.2-12.9
		C139.7,62.1,141,58.9,141,56.2z"/>
	<path d="M231.2,45.5c0,2.8-2,6.6-5.9,11.3c-2.2,2.6-6.1,7.3-11.6,14.1c-4.2,5.2-6.2,9.9-6.2,14.2c0,2.3,1.4,3.4,4.4,3.3
		c0.6,0,1.2,0,1.8-0.1h1.2c1.2,0,2.4,0.2,3.8,0.6l1.6,1.9c-0.3,0.1-2.2,0.6-5.8,1.5c-2.4,0.6-4.3,0.8-5.8,0.8
		c-3.2,0-5.5-0.8-6.8-2.4c-1.1-1.4-1.6-3.8-1.6-7.1V81c0-0.9,0-1.8,0.1-2.7c-5.4,3.5-9.2,5.8-11.4,7.1c-9.9,5.4-18.4,8.1-25.5,8.1
		c-7.9,0-11.9-1.9-11.9-5.8c0-2.8,3.6-8.7,10.8-17.5c4.9-6,9.8-11.5,14.6-16.3c6.3-6.3,10.3-9.5,12.1-9.5c1.5,0,2.2,0.8,2.2,2.4
		c0,2-2.9,6.3-8.6,12.9c-2.5,2.7-6.3,6.9-11.3,12.6c-5.1,5.9-8.4,10.5-9.9,14l1.2,1.2c0.5,0,1.3,0,2.4,0.1c1,0.1,1.8,0.1,2.4,0.1
		c2.4,0,5-0.5,7.8-1.6c1.6-0.7,4.1-1.8,7.4-3.2c8.3-3.4,14.7-6.8,19-10.3c2.3-1.8,5.4-5.4,9.3-10.8c1.7-2.4,4.9-6.8,9.4-13.1
		c3.1-4.2,5.5-6.3,7.2-6.3c0.9,0,2,0.4,3.1,1.2L231.2,45.5z"/>
	<path d="M291,93.8c-1.7,3.8-3.8,5.6-6.1,5.6c-2.7,0-5.6-2-8.8-5.9c-2.5-3-4.5-6.2-6.1-9.6c-6.6,3.1-11.1,5.2-13.4,6.1
		c-5.8,2.3-10.5,3.4-14,3.4c-6.2,0-9.3-3.1-9.3-9.4c0-10.1,5.5-19.1,16.5-27c3.6-2.6,8.5-5.4,14.6-8.3c7.3-3.5,12.5-5.3,15.5-5.3
		c2.1,0,4.1,1.1,6,3.4c1.9,2.3,2.8,4.5,2.8,6.7c0,4.3-1.7,10-5.1,17s-5.1,11.1-5.1,12.2c0,3.8,0.6,6.4,1.8,7.8
		C281.1,91.6,284.7,92.7,291,93.8z M286.8,54.1c0-2.8-2.4-4.2-7.3-4.2c-7.1,0-13.1,1.6-17.8,4.8c-4.4,3-8.9,7-13.6,12
		c-6,6.4-8.9,11.4-8.9,15.1c0,2.2,0.9,3.9,2.8,5.1c1.6,1,3.6,1.5,6,1.5c6.8,0,12.7-2.4,17.5-7.2c1.2-1.2,4.5-5.7,10-13.5
		c3.4-4.9,6.6-7.3,9.8-7.3C286.3,58.1,286.8,56,286.8,54.1z M290.7,96.2v-0.4h0.2v-0.4h-0.2v-0.7h0.5V95h-0.2v0.2h0.2v0.9H290.7z"/>
	<path d="M401.4,17.3c-0.6,3.4-2.4,8.6-5.3,15.6c-0.9,2.4-3.9,9.1-8.8,20.1c-1.5,3.3-3.8,8.7-6.9,16.3c-0.8,2.7-2,6.7-3.8,12.1
		c-2.2,6.7-3.9,10.3-5.2,10.8c-1.3,0.6-3.5,1.1-6.6,1.5l-0.4-3.6c0-4,1.7-9.8,5.2-17.5l10-22.2c3.4-7.5,5.1-13.6,5.1-18.3
		c-2,1-6.6,4.9-13.6,11.8l-17.8,17.3c-6.1,6-10.5,8.9-13.1,8.9c-3.3,0-5.4-6-6.2-18.1c-0.6-7.5-1-11.9-1.3-13.2
		c-3.1,4.4-6.7,11.5-11,21.5c-4.3,9.9-8,17.1-11.1,21.6c-5.2,7.4-10.4,11.1-15.6,11.1l6.3-14.1c2.1-4.6,6.2-13.5,12.2-26.7
		c4.3-9.5,6.7-14.6,7.3-15.4c1.3-1.9,4.1-4,8.5-6.2c0.3-0.5,0.9-2.4,1.9-5.4c0.5-1.8,1.8-3.6,3.8-5.4c3.1,2.7,5.3,7,6.8,12.7
		c0.4,1.5,1.4,10.1,3.2,25.8h1.1c2.6,0,7.6-3.9,15.1-11.8l20.9-22.1c7.6-7.9,12.6-11.9,14.9-11.9c1,0.6,2.1,1.1,3.2,1.6L401.4,17.3z
		"/>
	<path d="M464.9,70.9c0,7.4-5.3,13.1-16,17.3c-8.1,3.1-16.6,4.7-25.5,4.7c-18.7,0-28.1-4.6-28.1-13.9c0-6.6,6.1-13,18.3-19.2
		c10.9-5.5,20.1-8.2,27.5-8.2c6.6,0,12,1.5,16.3,4.6C462.5,59.6,464.9,64.5,464.9,70.9z M458.5,70.2c0-3.8-2-6.7-5.9-8.7
		c-3.1-1.6-6.8-2.4-11.1-2.4c-7.1,0-14.4,2-22,5.9c-8,4-13.7,8.9-17.2,14.7c5.3,5.4,11.7,8.1,19.2,8.1c7.1,0,14.5-1.3,22-3.9
		C453.5,80.5,458.5,75.9,458.5,70.2z"/>
	<path d="M527.4,64.5c0,2.7-1.3,6.7-3.9,11.9c-2.6,5.2-5,8.8-7.2,10.8c0.1,1,0.2,1.6,0.2,1.9c0.2,0.6,0.4,1.1,0.8,1.8
		c-0.6,2.4-2.2,3.5-4.7,3.5c-1.3,0-2.5-0.4-3.6-1.2c-1.1-0.8-1.6-1.8-1.6-3.1c0-2.3,2-6.2,6-11.6c4-5.5,6-9.3,6-11.4c0-4-2-6-6.1-6
		c-5.4,0-10.7,2.5-15.8,7.5c-2.6,2.7-7.3,7.6-14.2,14.6c-5.5,5.6-10.8,8.8-15.9,9.6v-1.1l-1.1-1.2c0-4.2,3.8-10.8,11.5-20
		c4.4-5.3,7.2-9.1,8.5-11.4c0.7-2,1.5-4.1,2.4-6.1c0.7-1.6,1.4-2.7,2.1-3.3c0.7-0.6,1.7-0.9,3.2-0.9c2.2,0,3.3,1.1,3.3,3.4
		c0,1.6-0.2,2.8-0.6,3.8c-0.1,0.3-0.9,2.4-2.6,6.3c6.7-3.6,10.6-5.6,11.5-6c5.3-2.6,9.2-3.9,11.8-3.9c3,0,5.4,1.2,7.2,3.7
		C526.5,58.7,527.4,61.5,527.4,64.5z"/>
	<path d="M580.9,22.2c0,2-0.7,4.2-2,6.6c-0.5,1-2.9,4.4-7.2,10c2,1.3,4,2.6,6,3.9c2.2,1.8,3.2,3.8,2.9,6.1l-0.1,1.3
		c-0.1,0-1.9-0.5-5.4-1.6c-2.3-0.7-4-1.1-5.3-1.1c-4.3,0-10.5,4.5-18.6,13.6S539,76.8,539,81.2c0,3.8,3.4,6.6,10.3,8.3
		c4.4,1.1,9.3,1.6,14.8,1.6c2.1,0,4.3-0.2,6.5-0.5c-0.1,0.4,0.3,1.1,1.1,2.1c-4.9,1.9-9.8,2.8-14.7,2.8c-17.6,0-26.5-4.3-26.5-12.9
		c0-5.1,4.4-12.6,13.3-22.5L553.9,49l-4.1-0.2c-1.7-0.1-4,0.4-6.9,1.4c-5.7,2-9.1,3.1-10.1,3.1c-1.3,0-2.6-0.4-3.7-1.2
		c-1.1-0.8-1.7-1.9-1.7-3.1c0-3.1,3.5-4.6,10.5-4.6c0.7,0,1.7,0,3.1,0.1c1.3,0.1,2.4,0.1,3.1,0.1c6,0,10.9-1,14.8-3.1
		c3.9-2,7.3-5.6,10.3-10.6c1-1.7,3.4-6.6,7.2-14.6c1,0,2.1,0.7,3.1,2.1S580.9,21.1,580.9,22.2z"/>
	<path d="M638,85.1c-2.4,2.6-7.9,4.5-16.7,5.9c-6.2,0.9-12.5,1.4-18.9,1.4c-13.2,0-19.9-3.8-19.9-11.4c0-9.3,6.9-17.3,20.7-24
		c4.8-2.4,9.8-4.3,14.9-5.8c5,1.2,8.3,2,10,2.6c3.5,1.2,5.3,4.1,5.3,8.8c0,4.2-2.7,7.4-8,9.9c-4.5,2-9,3.1-13.6,3.1
		c-7.2,0-12.4-1.1-15.5-3.3c-3.9,1.9-5.9,4.3-5.9,7.3c0,5.3,4.8,7.9,14.3,7.9c3.5,0,7.6-0.2,12.3-0.7
		C628.1,85.7,635.1,85.1,638,85.1z M625.9,62.5c-2.4-2.5-5.2-3.8-8.6-3.8c-2.4,0-4.6,0.5-6.6,1.5c-0.1,0.1-2.1,1.2-6,3.3
		c2.4,3.8,5.6,5.6,9.6,5.6C619,69.2,622.8,67,625.9,62.5z"/>
</g>
</svg>
